<?xml version="1.0" standalone="no"?>
<!DOCTYPE svg PUBLIC "-//W3C//DTD SVG 20010904//EN"
 "http://www.w3.org/TR/2001/REC-SVG-20010904/DTD/svg10.dtd">
<svg version="1.0" xmlns="http://www.w3.org/2000/svg"
 width="1280.000000pt" height="2240.000000pt" viewBox="0 0 1280.000000 2240.000000"
 preserveAspectRatio="xMidYMid meet">
<metadata>
Created by potrace 1.16, written by Peter Selinger 2001-2019
</metadata>
<g transform="translate(0.000000,2240.000000) scale(0.100000,-0.100000)"
fill="#000000" stroke="none">
<path d="M10595 21765 c-263 -46 -508 -165 -708 -341 -61 -54 -8457 -8729
-8825 -9119 -439 -464 -561 -1145 -310 -1735 54 -128 144 -277 226 -377 90
-107 8808 -9128 8909 -9217 207 -183 454 -299 728 -343 123 -19 391 -13 505
12 283 62 514 188 715 390 216 215 345 465 396 767 18 104 20 148 16 283 -13
361 -133 653 -379 921 -45 50 -1845 1912 -3998 4139 -2153 2226 -3916 4050
-3917 4054 -2 3 1786 1855 3973 4116 2319 2397 4002 4145 4039 4193 189 252
285 539 285 855 0 677 -460 1244 -1130 1392 -104 23 -417 29 -525 10z"/>
</g>
</svg>
